<svg width="28" height="31" viewBox="0 0 28 31" fill="none" xmlns="http://www.w3.org/2000/svg">
    <path fill-rule="evenodd" clip-rule="evenodd"
          d="M9.85333 15.3666L20.6044 30.1629L22.496 25.024L27.9676 24.821L17.2165 10.0247L9.85333 15.3666Z"
          fill="#EC9922"/>
    <path fill-rule="evenodd" clip-rule="evenodd"
          d="M17.2165 10.0247L9.85327 15.3667L16.7704 24.883C17.256 24.6179 17.8488 24.584 18.391 24.821L20.2374 25.622C20.5932 25.7743 20.9659 25.7518 21.299 25.5598C21.6322 25.3681 21.8354 25.0579 21.8807 24.6742L22.1064 22.6718C22.2081 21.803 22.8744 21.1374 23.7439 21.0359L25.1048 20.8836L17.2165 10.0247Z"
          fill="#C37A24"/>
    <path fill-rule="evenodd" clip-rule="evenodd"
          d="M10.7511 10.0247L18.1142 15.3667L7.36319 30.1628L5.47153 25.024L0 24.821L10.7511 10.0247Z" fill="#EC9922"/>
    <path fill-rule="evenodd" clip-rule="evenodd"
          d="M10.7512 10.0247L18.1142 15.3667L11.2085 24.8661C10.7286 24.6179 10.1526 24.5896 9.62177 24.821L7.77536 25.622C7.4197 25.7743 7.04699 25.7518 6.7138 25.5598C6.38072 25.3681 6.17735 25.0579 6.1322 24.6742L5.90075 22.6718C5.80474 21.803 5.13847 21.1374 4.26322 21.0359L2.86847 20.878L10.7512 10.0247Z"
          fill="#C37A24"/>
    <path fill-rule="evenodd" clip-rule="evenodd"
          d="M22.5865 5.81093L24.3482 6.01399C24.6869 6.05348 24.9637 6.23399 25.1331 6.52735C25.3024 6.82061 25.3194 7.14786 25.1839 7.45816L24.478 9.08834C24.1675 9.79344 24.3877 10.5944 25.0031 11.0514L26.4318 12.1119C26.7084 12.3093 26.8552 12.6026 26.8552 12.9412C26.8552 13.2851 26.7084 13.5729 26.4318 13.7759L25.0031 14.8308C24.3877 15.2934 24.1675 16.0945 24.478 16.7996L25.1839 18.4298C25.3194 18.74 25.3024 19.0672 25.1331 19.3606C24.9637 19.6538 24.6869 19.8344 24.3482 19.8738L22.5865 20.077C21.8186 20.1616 21.2312 20.7482 21.1466 21.5154L20.9432 23.2753C20.9038 23.6138 20.723 23.8902 20.4294 24.0595C20.1359 24.2287 19.8083 24.2455 19.4977 24.1102L17.8659 23.405C17.1601 23.1004 16.3583 23.3148 15.8953 23.9297L14.8393 25.3568C14.6361 25.6332 14.348 25.7799 14.0036 25.7799C13.6648 25.7799 13.3711 25.6332 13.1736 25.3568L12.112 23.9297C11.6546 23.3148 10.8527 23.1004 10.1469 23.405L8.51511 24.1102C8.20449 24.2455 7.87703 24.2287 7.58337 24.0595C7.28982 23.8902 7.10913 23.6138 7.0696 23.2753L6.86623 21.5154C6.78156 20.7482 6.19435 20.1616 5.42645 20.077L3.65898 19.8738C3.32018 19.8344 3.0492 19.6538 2.87974 19.3606C2.7104 19.0672 2.68782 18.74 2.82337 18.4298L3.53478 16.7996C3.83967 16.0945 3.62518 15.2934 3.00405 14.8308L1.58112 13.7759C1.30442 13.5729 1.15753 13.2851 1.15753 12.9412C1.15753 12.6026 1.30442 12.3093 1.58112 12.1119L3.00405 11.0514C3.62518 10.5944 3.83967 9.79344 3.53478 9.08834L2.82337 7.45816C2.68782 7.14786 2.7104 6.82061 2.87974 6.52735C3.0492 6.23399 3.32018 6.05348 3.65898 6.01399L5.42645 5.81093C6.19435 5.72634 6.78156 5.13961 6.86623 4.37248L7.0696 2.60689C7.10913 2.27404 7.28982 1.99761 7.58337 1.82843C7.87703 1.65925 8.20449 1.6422 8.51511 1.77761L10.1469 2.4827C10.8527 2.7874 11.6546 2.57301 12.112 1.95251L13.1736 0.530996C13.3711 0.25457 13.6648 0.107941 14.0036 0.107941C14.348 0.107941 14.6361 0.25457 14.8393 0.530996L15.8953 1.95251C16.3583 2.57301 17.1601 2.7874 17.8659 2.4827L19.4977 1.77761C19.8083 1.6422 20.1359 1.65925 20.4294 1.82843C20.723 1.99761 20.9038 2.27404 20.9432 2.60689L21.1466 4.37248C21.2312 5.13961 21.8186 5.72634 22.5865 5.81093Z"
          fill="#FFDB70"/>
    <path fill-rule="evenodd" clip-rule="evenodd"
          d="M16.0037 13.8112C16.0037 13.8017 16.0152 13.797 16.0219 13.8038L16.6439 14.4361C16.6479 14.4401 16.648 14.4464 16.6443 14.4505L16.0222 15.1443C16.0156 15.1515 16.0037 15.147 16.0037 15.1372V13.8112ZM10.9172 6.79076L11.3423 8.62702L11.6422 9.91442C11.649 9.94323 11.6582 9.97096 11.6685 9.99804L12.7378 14.492C12.7381 14.4927 12.7382 14.4936 12.7382 14.4944V17.2167C12.7382 17.2176 12.7381 17.2185 12.7378 17.2192L11.8085 21.0675C11.7035 21.5024 11.9712 21.9402 12.4067 22.045C12.4706 22.0605 12.5346 22.0678 12.5975 22.0678C12.9636 22.0678 13.2957 21.8186 13.3853 21.4474L14.3601 17.4104C14.3628 17.3996 14.3782 17.3996 14.3809 17.4104L15.3559 21.4474C15.4456 21.8187 15.7777 22.0678 16.1437 22.0678C16.2067 22.0678 16.2708 22.0605 16.3345 22.045C16.77 21.9402 17.0378 21.5024 16.9329 21.0675L16.0039 17.2227C16.0037 17.2218 16.0037 17.2211 16.0037 17.2202V16.8534C16.0037 16.848 16.0077 16.8435 16.013 16.8431C16.1674 16.8269 16.3166 16.7588 16.4282 16.6342L18.423 14.4095C18.4269 14.4053 18.4267 14.399 18.4227 14.395L15.9196 11.8504C15.6221 11.5481 15.353 11.3672 14.4522 11.3672H13.3364C13.3315 11.3672 13.3272 11.3638 13.3261 11.359L12.2133 6.79076H10.9172Z"
          fill="#EC9922"/>
    <path fill-rule="evenodd" clip-rule="evenodd"
          d="M14.6614 11.0616C15.5014 11.0616 16.1813 10.385 16.1813 9.54258C16.1813 8.69981 15.5014 8.02418 14.6614 8.02418C13.821 8.02418 13.1406 8.69981 13.1406 9.54258C13.1406 10.385 13.821 11.0616 14.6614 11.0616Z"
          fill="#EC9922"/>
    <path fill-rule="evenodd" clip-rule="evenodd" d="M12.0093 13.3093L11.8046 13.1047Z" fill="#EC9922"/>
    <path fill-rule="evenodd" clip-rule="evenodd"
          d="M12.3894 17.311V14.5068L12.14 13.1917L11.9506 12.3963C11.3405 13.0672 10.8549 13.9832 10.3782 14.8841C9.82049 15.9378 9.24365 17.0274 8.49422 17.6689L8.15369 17.9604L8.53569 18.195C9.44853 18.7555 10.6554 19.0643 11.9338 19.0643C11.9573 19.0643 11.9802 19.0624 12.0039 19.0622L12.3894 17.311C12.3799 17.3113 12.165 18.3622 12.1555 18.3625L12.3894 17.311Z"
          fill="#EC9922"/>
    <path fill-rule="evenodd" clip-rule="evenodd"
          d="M9.10937 6.53658H14.5114C14.6072 6.53658 14.685 6.61426 14.685 6.70975C14.685 6.80545 14.6072 6.88313 14.5114 6.88313H9.10937C9.01368 6.88313 8.93591 6.80545 8.93591 6.70975C8.93591 6.61426 9.01368 6.53658 9.10937 6.53658Z"
          fill="#EC9922"/>
    <path fill-rule="evenodd" clip-rule="evenodd"
          d="M9.66571 6.42299C9.66571 5.26355 10.6049 4.31926 11.7596 4.31926C12.9142 4.31926 13.8534 5.26355 13.8534 6.42299"
          fill="#EC9922"/>
    <path fill-rule="evenodd" clip-rule="evenodd"
          d="M11.7058 3.84711C11.8194 3.84711 11.9151 3.94282 11.9151 4.05632C11.9151 4.16983 11.8253 4.26553 11.7058 4.26553C11.592 4.26553 11.4963 4.16983 11.4963 4.05632C11.5024 3.94282 11.592 3.84711 11.7058 3.84711Z"
          fill="#EC9922"/>
    <path fill-rule="evenodd" clip-rule="evenodd"
          d="M14.7361 13.425L14.9895 14.1328L14.3697 13.7063L13.7735 14.1658L13.9883 13.4452L13.3669 13.0208L14.1189 13.0023L14.3309 12.2808L14.5812 12.9898L15.333 12.9682L14.7361 13.425Z"
          fill="#FFDB70"/>
</svg>
